:SAMPLES-PER-SECOND 30
:FULLY-SPECIFIED
:DEGREES
307
root  -54.6651 35.0254 29.9782 -173.289 37.9317 178.286
RightUpLeg  -5.6533 -13.8362 -2.46952
RightLeg  8.87086 -6.30199 -0.568873
RightFoot  0.729358 -0.0476276 0.0932835
RightToes  -19.8864 -0.0842342 -0.178526
Spine  -1.95616 2.48784 -1.90664
Spine1  -3.81275 4.69618 -2.9401
HEad  -63.6198 -11.7156 2.21993
LeftShoulder1  -1.94126e-019 -3.10601e-018 -2.51263e-017
LeftArm  -3.40137 23.2623 -77.1461
LeftForeArm  29.2948 -22.5548 -3.64078
LeftHand  -0.312422 -1.64705 5.32366
RightShoulder  -4.96962e-017 0 -2.36833e-017
RightArm  7.07099 18.4768 51.0324
RightForeArm  43.9149 54.8995 12.3755
RightHand  0.241644 8.58951 1.61321
LeftUpLeg  -7.52777 -8.16853 -0.206925
LeftLeg  4.09117 10.1356 0.0714717
LeftFoot  7.384 -0.0828133 1.4635
LeftToes  -18.3819 1.48321e-006 1.01846e-007
308
root  -54.6917 35.0306 30.0138 -173.38 38.0611 178.249
RightUpLeg  -5.70699 -13.7259 -2.49373
RightLeg  8.92553 -6.29745 -0.574514
RightFoot  0.741183 -0.0484467 0.0970552
RightToes  -19.7602 -0.0840239 -0.178251
Spine  -1.97855 2.50959 -2.08409
Spine1  -3.84842 4.72321 -3.27486
HEad  -62.6491 -11.7747 3.57815
LeftShoulder1  -1.94126e-019 -3.10601e-018 -2.51263e-017
LeftArm  -3.41275 23.4637 -76.4587
LeftForeArm  29.0686 -22.6297 -3.68217
LeftHand  -0.319336 -1.59598 5.47374
RightShoulder  -4.96962e-017 0 -2.36833e-017
RightArm  -4.88195 21.7575 49.8863
RightForeArm  47.2768 46.0862 8.40622
RightHand  -0.657399 4.67348 -7.86031
LeftUpLeg  -7.55229 -8.18377 -0.224174
LeftLeg  4.13857 10.2249 0.0805072
LeftFoot  7.50752 -0.0846901 1.49936
LeftToes  -18.5609 1.48321e-006 1.01846e-007
309
root  -54.7061 35.0241 30.0323 -173.491 38.5852 178.26
RightUpLeg  -5.76758 -13.5783 -2.52946
RightLeg  9.03706 -5.90452 -0.550356
RightFoot  0.745706 -0.049159 0.0994961
RightToes  -19.9066 -0.0838252 -0.178002
Spine  -2.00328 2.6377 -2.11329
Spine1  -3.89757 4.97674 -3.3227
HEad  -61.3738 -11.7997 4.95121
LeftShoulder1  -1.94126e-019 -3.10601e-018 -2.51263e-017
LeftArm  -3.89826 23.53 -76.3123
LeftForeArm  29.4969 -21.6701 -3.57037
LeftHand  -0.325852 -1.61798 5.56655
RightShoulder  -4.96962e-017 0 -2.36833e-017
RightArm  -27.4159 26.6419 50.0736
RightForeArm  45.2426 36.1014 5.58427
RightHand  -0.499381 -2.36903 -18.9419
LeftUpLeg  -7.40107 -8.55899 -0.211379
LeftLeg  4.1517 11.0415 0.0894203
LeftFoot  7.46228 -0.0909034 1.60358
LeftToes  -18.7701 1.48321e-006 1.01846e-007
310
root  -54.7121 35.022 30.0843 -173.506 38.8652 178.361
RightUpLeg  -5.8118 -13.3412 -2.41528
RightLeg  9.04908 -5.85535 -0.547024
RightFoot  0.795169 -0.0497116 0.0998546
RightToes  -19.943 -0.0836381 -0.17778
Spine  -2.01716 2.78513 -2.09461
Spine1  -3.93185 5.27988 -3.28431
HEad  -60.4836 -12.151 6.45489
LeftShoulder1  -1.94126e-019 -3.10601e-018 -2.51263e-017
LeftArm  -4.38405 23.3657 -76.2402
LeftForeArm  30.4684 -20.4128 -3.41614
LeftHand  -0.321081 -1.64933 5.46536
RightShoulder  -4.96962e-017 0 -2.36833e-017
RightArm  -50.5995 30.5475 48.2621
RightForeArm  31.5759 32.0549 5.36263
RightHand  0.979866 -9.41123 -27.8675
LeftUpLeg  -7.4152 -8.04404 -0.143369
LeftLeg  4.24954 10.8976 0.106745
LeftFoot  7.42278 -0.0888066 1.57939
LeftToes  -18.8586 1.48321e-006 1.01846e-007
311
root  -54.7135 35.0246 30.102 -173.443 38.9769 178.423
RightUpLeg  -5.80031 -13.3464 -2.34988
RightLeg  8.88587 -5.74176 -0.519966
RightFoot  0.883811 -0.0498184 0.094048
RightToes  -19.882 -0.0834621 -0.17758
Spine  -2.07301 2.77741 -2.13711
Spine1  -4.04811 5.271 -3.36847
HEad  -60.1894 -12.4924 8.24085
LeftShoulder1  -1.94126e-019 -3.10601e-018 -2.51263e-017
LeftArm  -4.77219 23.7338 -75.8457
LeftForeArm  30.5611 -19.644 -3.30543
LeftHand  -0.317889 -1.64945 5.41248
RightShoulder  -4.96962e-017 0 -2.36833e-017
RightArm  -61.6705 31.8195 45.3387
RightForeArm  25.1981 33.6082 6.07578
RightHand  2.55436 -13.6882 -34.3814
LeftUpLeg  -7.51914 -8.47866 -0.039427
LeftLeg  4.41765 11.3345 0.144015
LeftFoot  7.34647 -0.091165 1.62507
LeftToes  -18.7863 1.48321e-006 1.01846e-007
312
root  -54.6999 35.0309 30.1155 -173.221 39.1275 178.531
RightUpLeg  -5.83535 -12.9962 -2.18948
RightLeg  8.57752 -5.9523 -0.506741
RightFoot  1.07941 -0.0488975 0.0737679
RightToes  -19.9434 -0.083297 -0.177402
Spine  -2.17955 2.58833 -2.23058
Spine1  -4.25617 4.88855 -3.54755
HEad  -60.4387 -12.6092 10.0021
LeftShoulder1  -1.94126e-019 -3.10601e-018 -2.51263e-017
LeftArm  -5.36124 24.6732 -75.2492
LeftForeArm  30.2256 -19.1444 -3.2019
LeftHand  -0.325055 -1.41061 5.70569
RightShoulder  -4.96962e-017 0 -2.36833e-017
RightArm  -63.9924 31.3088 42.295
RightForeArm  25.5551 35.7013 6.60469
RightHand  2.25101 -13.6917 -30.5941
LeftUpLeg  -7.65735 -7.94898 0.0548903
LeftLeg  4.39303 11.034 0.13552
LeftFoot  7.37316 -0.088485 1.59286
LeftToes  -18.9338 1.48321e-006 1.01846e-007
313
root  -54.6829 35.0224 30.1257 -173.072 39.4495 178.532
RightUpLeg  -6.02027 -12.639 -2.12515
RightLeg  8.56696 -5.98959 -0.508797
RightFoot  0.990552 -0.0502061 0.0855611
RightToes  -19.7468 -0.0831425 -0.177243
Spine  -2.28638 2.27106 -2.26311
Spine1  -4.46548 4.25619 -3.6015
HEad  -61.0619 -12.4883 10.4348
LeftShoulder1  -1.94126e-019 -3.10601e-018 -2.51263e-017
LeftArm  -6.19797 25.9518 -74.8779
LeftForeArm  29.1471 -18.4983 -3.05287
LeftHand  -0.314844 -1.12139 5.75195
RightShoulder  -4.96962e-017 0 -2.36833e-017
RightArm  -57.9104 29.1947 40.0596
RightForeArm  27.6705 39.8022 7.63826
RightHand  1.43804 -12.024 -24.9175
LeftUpLeg  -7.81345 -7.73493 0.0913328
LeftLeg  4.49973 11.1117 0.157018
LeftFoot  7.26121 -0.0872501 1.58339
LeftToes  -18.7989 1.48321e-006 1.01846e-007
314
root  -54.6456 35.0103 30.1172 -173.029 40.0569 178.535
RightUpLeg  -6.14446 -12.1606 -2.1036
RightLeg  8.64903 -5.88417 -0.508346
RightFoot  0.88247 -0.0516818 0.0999636
RightToes  -19.754 -0.0829983 -0.177102
Spine  -2.32363 1.95329 -2.24068
Spine1  -4.53775 3.6294 -3.54787
HEad  -62.2935 -11.8467 9.87079
LeftShoulder1  -1.94126e-019 -3.10601e-018 -2.51263e-017
LeftArm  -7.50066 27.3675 -74.5055
LeftForeArm  25.8798 -18.9758 -3.08552
LeftHand  -0.239227 -0.732871 4.64136
RightShoulder  -4.96962e-017 0 -2.36833e-017
RightArm  -48.6465 25.682 39.0095
RightForeArm  30.9282 47.3553 9.98933
RightHand  0.99231 -10.6854 -21.8329
LeftUpLeg  -7.69177 -7.39186 0.0985676
LeftLeg  4.43246 11.3523 0.147154
LeftFoot  7.15909 -0.0874154 1.5958
LeftToes  -19.0101 1.48321e-006 1.01846e-007
315
root  -54.5901 35.001 30.1032 -173.008 40.9002 178.525
RightUpLeg  -6.28086 -11.6682 -2.09656
RightLeg  8.75516 -5.55179 -0.49005
RightFoot  0.758748 -0.053264 0.116115
RightToes  -19.7294 -0.082864 -0.176975
Spine  -2.33299 1.74032 -2.20659
Spine1  -4.54955 3.20131 -3.46878
HEad  -63.8611 -11.0716 8.92506
LeftShoulder1  -1.94126e-019 -3.10601e-018 -2.51263e-017
LeftArm  -7.96974 28.8441 -73.8292
LeftForeArm  21.0227 -21.9077 -3.61596
LeftHand  -0.13777 0.1865 3.0813
RightShoulder  -4.96962e-017 0 -2.36833e-017
RightArm  -39.033 20.9577 38.3989
RightForeArm  33.4684 57.2498 14.6735
RightHand  0.823251 -10.1457 -20.3282
LeftUpLeg  -7.4049 -6.79347 0.0779198
LeftLeg  4.16628 11.5901 0.0967602
LeftFoot  7.08192 -0.0877764 1.61119
LeftToes  -19.0267 1.48321e-006 1.01846e-007
316
root  -54.5235 35.0018 30.094 -173.026 41.8206 178.543
RightUpLeg  -6.31763 -11.1137 -2.06376
RightLeg  8.76097 -5.21206 -0.46065
RightFoot  0.734576 -0.0539591 0.119824
RightToes  -19.6778 -0.0827395 -0.176862
Spine  -2.35565 1.61146 -2.17349
Spine1  -4.5788 2.92202 -3.38751
HEad  -65.1949 -10.2004 8.18585
LeftShoulder1  -1.94126e-019 -3.10601e-018 -2.51263e-017
LeftArm  -7.54614 30.2627 -72.7923
LeftForeArm  19.5009 -27.6862 -4.86829
LeftHand  -0.0954959 0.615915 2.26749
RightShoulder  -4.96962e-017 0 -2.36833e-017
RightArm  -29.9386 16.2719 37.507
RightForeArm  36.9455 66.4571 22.5792
RightHand  0.582488 -9.35055 -17.5811
LeftUpLeg  -7.02044 -6.28762 0.0890246
LeftLeg  3.85629 11.988 0.0357074
LeftFoot  7.04012 -0.0898156 1.65245
LeftToes  -19.0145 1.48321e-006 1.01846e-007
317
root  -54.4715 35.0102 30.0845 -173.164 42.4996 178.533
RightUpLeg  -6.17569 -10.8687 -2.08626
RightLeg  8.65433 -4.79947 -0.415234
RightFoot  0.766651 -0.0543572 0.119525
RightToes  -19.6043 -0.0826244 -0.176759
Spine  -2.38952 1.47015 -2.12273
Spine1  -4.62458 2.61109 -3.27421
HEad  -65.7522 -9.26187 7.78034
LeftShoulder1  -1.94126e-019 -3.10601e-018 -2.51263e-017
LeftArm  -5.84593 30.9679 -71.3729
LeftForeArm  20.5335 -35.2739 -6.6879
LeftHand  -0.0937975 0.476324 2.17918
RightShoulder  -4.96962e-017 0 -2.36833e-017
RightArm  -21.0442 12.4801 36.2375
RightForeArm  46.7897 73.907 36.2273
RightHand  0.242312 -8.03568 -11.7976
LeftUpLeg  -6.63962 -6.27338 0.0743733
LeftLeg  3.66925 12.6363 -0.00325409
LeftFoot  6.99049 -0.0936912 1.72186
LeftToes  -18.8183 1.48321e-006 1.01846e-007
318
root  -54.4049 35.0152 30.0429 -173.386 43.077 178.485
RightUpLeg  -5.89032 -10.9055 -2.17807
RightLeg  8.51451 -4.20427 -0.353422
RightFoot  0.807188 -0.0546213 0.117554
RightToes  -19.8375 -0.0825183 -0.176666
Spine  -2.47777 1.34508 -2.07692
Spine1  -4.76976 2.32669 -3.16953
HEad  -65.2585 -8.3366 7.60726
LeftShoulder1  -1.94126e-019 -3.10601e-018 -2.51263e-017
LeftArm  -3.74845 30.7572 -69.5913
LeftForeArm  21.2994 -43.9559 -9.32477
LeftHand  -0.101146 0.926734 2.53376
RightShoulder  -4.96962e-017 0 -2.36833e-017
RightArm  -12.895 10.224 34.9133
RightForeArm  68.9048 78.6814 58.3343
RightHand  -0.0451344 -4.42502 -2.79499
LeftUpLeg  -6.15505 -7.2354 0.0507408
LeftLeg  3.47633 14.0501 -0.0503614
LeftFoot  7.00029 -0.10473 1.9021
LeftToes  -19.022 1.48321e-006 1.01846e-007
